<svg width="50" height="50" viewBox="0 0 50 50" fill="none" xmlns="http://www.w3.org/2000/svg"><path d="M0 0h50v50H0z"/><path d="M0 .228h50v49H0z"/><mask id="a" maskUnits="userSpaceOnUse" x="0" y="0" width="50" height="49"><path fill-rule="evenodd" clip-rule="evenodd" d="M49.74.486V48.78H0V.486h49.74z" fill="#fff"/></mask><g mask="url(#a)"><path fill-rule="evenodd" clip-rule="evenodd" d="M0 24.63C0 11.295 11.136.487 24.87.487c13.74 0 24.87 10.808 24.87 24.145S38.61 48.78 24.87 48.78C11.135 48.78 0 37.968 0 24.63z" fill="#FEFEFE"/></g><path fill-rule="evenodd" clip-rule="evenodd" d="M1.659 24.63c0-12.447 10.393-22.534 23.21-22.534 12.824 0 23.212 10.087 23.212 22.535 0 12.447-10.388 22.54-23.211 22.54-12.818 0-23.211-10.093-23.211-22.54z" fill="#EA2427"/><path fill-rule="evenodd" clip-rule="evenodd" d="M13.91 20.07c0-.813-.293-1.508-.877-2.08-.575-.582-1.275-.871-2.116-.871H7.934v2.95c0 .812.282 1.512.857 2.103a2.902 2.902 0 0 0 2.126.871c.841 0 1.541-.288 2.116-.87.584-.592.876-1.292.876-2.104zm-5.99-5.29v.382h2.997c1.41 0 2.62.48 3.622 1.438 1.013.954 1.522 2.109 1.522 3.47 0 1.36-.51 2.523-1.522 3.492-1.013.954-2.217 1.438-3.622 1.438-1.4 0-2.605-.484-3.617-1.438-1.008-.969-1.507-2.133-1.507-3.493v-7.353c.58 0 1.083.206 1.491.616.424.397.635.886.635 1.448zm16.755 8.221v-2.95c0-.812-.292-1.507-.877-2.089-.574-.592-1.274-.885-2.11-.885-.836 0-1.547.293-2.127.885a2.868 2.868 0 0 0-.861 2.09c0 .807.288 1.506.861 2.088.58.572 1.29.861 2.127.861h2.987zm2.15-2.95v4.907h-5.138c-1.4 0-2.61-.48-3.622-1.428-1.003-.96-1.506-2.118-1.506-3.479 0-1.36.503-2.524 1.506-3.478 1.013-.968 2.222-1.453 3.622-1.453s2.605.485 3.618 1.453c1.017.954 1.52 2.118 1.52 3.478zm.001 15.658H24.7v-9.686c.585 0 1.078.206 1.497.616.418.401.629.886.629 1.453v1.825h2.816a2.85 2.85 0 0 0 2.111-.886c.584-.586.69-.846.837-1.496 0 0 .095-1.512 2.165-1.512v.92c0 .787-.186 1.531-.559 2.225a4.963 4.963 0 0 1-1.516 1.737 4.906 4.906 0 0 1 1.517 1.742c.372.69.558 1.423.558 2.202v.86h-2.13v-.86c0-.803-.288-1.503-.872-2.09a2.85 2.85 0 0 0-2.111-.885h-2.816v3.835zm16.822-4.779c0 .802-.292 1.502-.877 2.089-.58.591-1.285.812-2.11.812-.837 0-1.547-.216-2.127-.798-.584-.592-.876-1.291-.876-2.104v-2.837c0-.567-.207-1.052-.63-1.453a2.042 2.042 0 0 0-1.496-.616v4.907c0 1.36.503 2.524 1.51 3.492 1.003.96 2.208 1.439 3.618 1.439 1.4 0 2.605-.48 3.607-1.439 1.008-.968 1.507-2.133 1.507-3.492v-4.907a2.09 2.09 0 0 0-1.507.616 1.95 1.95 0 0 0-.62 1.453v2.838z" fill="#F7FAFB"/></svg>